<?xml version="1.0" encoding="utf-8"?>
<!-- Generator: Adobe Illustrator 25.0.0, SVG Export Plug-In . SVG Version: 6.00 Build 0)  -->
<svg version="1.1" id="Laag_1" xmlns="http://www.w3.org/2000/svg" xmlns:xlink="http://www.w3.org/1999/xlink" x="0px" y="0px"
	 viewBox="0 0 1920 1080" style="enable-background:new 0 0 1920 1080;" xml:space="preserve">
<style type="text/css">
	.st0{opacity:0.4;}
	.st1{fill:#B3D257;}
	.st2{fill:#E6DED4;}
	.st3{fill:#00C2F3;}
	.st4{fill:none;}
</style>
<g class="st0">
	<g>
		<g>
			<g>
				<polygon class="st1" points="1357.1,1084.4 1405.5,1014.8 1457.7,1084.4 				"/>
				<path class="st1" d="M1737.1,427.2l-59.2-23.3l76.7-96.5l47.7,24.6l-4.4,47.9C1768.7,380.1,1744.2,400.1,1737.1,427.2z"/>
				<circle class="st1" cx="1798.6" cy="443.5" r="45.8"/>
				<path class="st1" d="M1311.3,884.1c-22.3,0-42.4,9.7-56.2,25.1l-50.7-46.1l9.7-157.7l138.5-148l156,120.8L1431.1,847l-69.1,56.6
					C1348.5,891.5,1330.8,884.1,1311.3,884.1z"/>
				<path class="st1" d="M1311.3,1035.2c27,0,50.7-14.2,64-35.5l13.5,5.8l-49.1,78.8h-92.7l38.2-53.7
					C1293.4,1033.6,1302.2,1035.2,1311.3,1035.2z"/>
				<ellipse class="st1" cx="1311.3" cy="959.7" rx="57.5" ry="57.5"/>
				<path class="st1" d="M1156.4,499.5L1095.9,397l22.8-77l52.5,54.1l4.7,119.9C1169,494.9,1162.5,496.7,1156.4,499.5z"/>
				<path class="st1" d="M1196.4,494.7l-3.8-98.6l77.7,80.1l-36,40C1224.5,505.3,1211.3,497.5,1196.4,494.7z"/>
				<circle class="st1" cx="1183.9" cy="560.6" r="50.9"/>
				<path class="st1" d="M1304.2,1.4l36.5,58.1c-5.5,6.4-9.3,14.2-10.6,22.9l-68.7-0.2l-32.6-80.9H1304.2z"/>
				<path class="st1" d="M1375.3,43.6c-6.4,0-12.5,1.3-18.1,3.7l-28.9-46h55.8l70.8,67l-10,14.3l-24.4-0.1
					C1417.2,60.6,1398.3,43.6,1375.3,43.6z"/>
				<path class="st1" d="M1343,89.5c0,17.8,14.4,32.3,32.3,32.3c17.8,0,32.3-14.4,32.3-32.3s-14.4-32.3-32.3-32.3
					C1357.4,57.2,1343,71.7,1343,89.5z"/>
			</g>
			<g>
				<polygon class="st2" points="1427.5,450.4 1370.4,405.3 1305.7,484.3 1355.9,535.5 				"/>
				<polygon class="st2" points="1560,302.5 1495.8,270.7 1591.3,169.4 1655.2,209.5 				"/>
				<polygon class="st2" points="1671.4,218.4 1728.6,286.6 1651.1,386.5 1579.2,316.1 				"/>
				<polygon class="st2" points="2039.5,1084.4 1589.9,1084.4 1921,878.7 2039.5,939.4 				"/>
				<polygon class="st2" points="2039.5,909.7 1932.9,843.7 2000.3,767.9 2039.5,618.1 				"/>
				<polygon class="st2" points="2039.5,1.4 2039.5,325.7 1823.8,314 1887.2,1.4 				"/>
				<polygon class="st2" points="1868.4,1.4 1804.1,308.8 1759.8,289.3 1813,1.4 				"/>
				<polygon class="st2" points="1781.5,1.4 1738.5,245 1681.3,176 1607.2,140.2 1643.9,1.4 				"/>
				<polygon class="st2" points="1600.5,1.4 1567.1,126.6 1442.7,1.4 				"/>
				<polygon class="st2" points="1206.6,1.4 1239.3,82.2 1180.3,82.1 1177.1,1.4 				"/>
				<path class="st2" d="M1668,420.8l67.1,25.9c1.4,27.7,20.4,50.7,46.1,58l-5.4,49.2l-156.4-35.1L1668,420.8z"/>
				<path class="st2" d="M960.1,902.9l229.2-173.3l-6.8,149.9l60.6,47.7c-4.7,9.8-7.3,20.9-7.3,32.5c0,20.4,8.1,38.8,21.2,52.4
					l-51.6,72.3H960.1V902.9z"/>
				<path class="st2" d="M960.1,709.2V284.9l120.5,26.5l-19.2,85.6l72.1,119.5c-10.3,11.8-16.6,27.2-16.6,44.2
					c0,15.5,5.3,29.8,14.1,41.1L960.1,709.2z"/>
				<path class="st2" d="M1251,560.6c0-5-0.6-9.8-1.6-14.4l42.8-49.6l47.1,47.7l-138.5,148.9l1.4-68
					C1230.4,617.1,1251,591.3,1251,560.6z"/>
				<path class="st2" d="M960.1,747.2l200.4-123.8c6.4,2.4,13.2,3.8,20.3,4.2v75.7L960.1,864.8V747.2z"/>
				<path class="st2" d="M1419.1,103.1l36.5,0.1l14.4-20.6l83.9,79.4l-73.6,81.6l-74.9-119.5
					C1411.7,118.5,1416.5,111.3,1419.1,103.1z"/>
				<g>
					<path class="st2" d="M1949.7,631.5c22.3-44.7,55.2-74.6,85.4-94.3l-64.4,215.3l-72.6,85.8l-93.6-49.8
						C1865.7,754,1919.5,691.9,1949.7,631.5z"/>
					<path class="st2" d="M1883.6,598.5c-33.5,67-104.5,137.9-167,143.4l-8.6-4.6l66.4-59.5l16-108.8l132.4-30.7
						C1908.5,555.6,1895.1,575.5,1883.6,598.5z"/>
				</g>
				<path class="st2" d="M1648.8,803c21.8,10,42.8,13.1,60.4,13.1c2.4,0,4.8-0.1,7.3-0.2c20.9-1,41.8-6.3,62.2-14.8l99.7,55.4
					l-378.4,227.8h-8.5l-74.3-81.2l197.2-171.1L1648.8,803z"/>
				<path class="st2" d="M1691.7,729.7l-40.1-15.6c-5-5.6-9.8-12-14.3-19.4c-18.1-28.9-34.9-64.2-51.9-102.4l26-55.3l159.3,35.1
					l-14.4,95L1691.7,729.7z"/>
				<path class="st2" d="M1943.8,515.7l-151.4,33.2l5.8-41.8c0.1,0,0.3,0,0.4,0c35.2,0,63.7-28.5,63.7-63.7
					c0-29.3-19.8-54-46.8-61.4l6.2-44.9l217.8,13.2v100C2011.3,463.2,1976.3,483.8,1943.8,515.7z"/>
				<g>
					<path class="st2" d="M1567,550.8c-5.6-12.7-11.2-25.6-16.9-38.5l29.1,13.8l-11.8,25.6C1567.3,551.4,1567.1,551.1,1567,550.8z"
						/>
					<path class="st2" d="M1444.9,462.3c19.3,37.5,36.9,78,54.4,118c9.1,20.7,17.9,41.1,26.9,60.6l-8.2,17.7l-152.9-114.4l77.9-82.8
						L1444.9,462.3z"/>
				</g>
				<g>
					<path class="st2" d="M1444.6,323.5l37.7-40.8l69.1,36.3l-63.9,67.8C1474.4,364.4,1460.1,343.1,1444.6,323.5z"/>
					<path class="st2" d="M1423.8,423.8l-41.6-32.8l11.7-12.6C1404.4,392.4,1414.3,407.7,1423.8,423.8z"/>
				</g>
				<g>
					<path class="st2" d="M1293.7,219.9c-37.6-9.1-74.5-21.4-109.4-36.1l-3.2-81.4l66.4,0.2l47.5,117.6
						C1294.6,220.2,1294.1,220,1293.7,219.9z"/>
					<path class="st2" d="M1276.3,291.7c21.3,5.2,40.7,14.5,58.5,27.1l24,59.4l-74.7,82.9l-92.6-95.5l-3.9-101.1
						C1216.4,275.3,1246.2,284.4,1276.3,291.7z"/>
				</g>
				<g>
					<path class="st2" d="M1320.2,228l-50.6-125.3l61.8,0.1c5.7,18.8,23.2,32.5,43.9,32.5c4.1,0,8.1-0.6,11.9-1.6l78.8,125.6
						l-39.1,43.4C1396.8,269.7,1361.9,243.5,1320.2,228z"/>
					<path class="st2" d="M1377.2,357.8l-3.2,3.6l-5.2-12.8C1371.7,351.5,1374.4,354.6,1377.2,357.8z"/>
				</g>
				<g>
					<path class="st2" d="M1054.2,110.6c-3.7-2.8-7.4-5.6-11-8.5l117.4,0.3l2.8,72.3C1123.5,156.4,1086.4,134.7,1054.2,110.6z"/>
					<path class="st2" d="M1166.6,256.4l3.4,87.1l-44.6-46l15.4-52C1149.3,249.3,1157.9,252.9,1166.6,256.4z"/>
					<path class="st2" d="M960.1,128.1c14.2,13.6,29.8,26.8,46.6,39.5l-46.6-8.2V128.1z"/>
				</g>
				<path class="st2" d="M960.1,1.4h196.6l3.2,80.6l-140.7-0.3c-24.3-22.2-44.1-45.5-59.1-69V1.4z"/>
				<path class="st2" d="M960.1,178.8l92.9,20.3c18.8,11.7,38.7,22.7,59.2,32.9l-11.2,51.2l-141-32.8V178.8z"/>
				<path class="st2" d="M1538.2,485.8c-12.8-27.9-26.3-55.8-41.1-82.4l69.6-73.9l73.5,73.4l-51.8,106.2L1538.2,485.8z"/>
				<path class="st2" d="M1456.8,867.4l81.8-176.8l14.4,5.4c7,13.2,14.1,25.8,21.6,37.8c17.5,28,36.9,46.8,56.4,59.3l-227.5,195.6
					l-20.1-6.7c2.2-7.1,3.4-14.7,3.4-22.5c0-10.6-2.2-20.7-6.2-29.9L1456.8,867.4z"/>
			</g>
			<g>
				<path class="st3" d="M1462.4,444c5.3-7.8,11.9-21.9,20.7-28.7c25.2,45.8,46.9,95.3,67.5,142.7c2.2,5.1,4.5,10.2,6.7,15.3
					c-9.6,13.9-16.2,29.2-21.9,44.9c-6.6-14.7-13.1-29.7-19.8-44.9c-18.3-42-36.9-84.4-57.3-123.8
					C1459.7,447.7,1461.1,445.8,1462.4,444z"/>
				<path class="st3" d="M1431.1,335.4c14.1,17.9,27.2,37.3,39.4,57.7c-10.9,7.8-18.8,20.9-25.7,31.3
					c-12.7-22.5-26.2-43.5-40.9-62.5C1412.6,352.7,1422.5,344.7,1431.1,335.4z"/>
				<path class="st3" d="M1154.8,190.5c41.7,19.3,87,35.2,134.7,46.8c50,12.2,90.7,40.6,125,78.5c-8.5,9.4-18.6,17.1-27.2,26.5
					c-29.9-33.2-64.7-57.6-106.9-67.8c-46.3-11.3-91.9-27-134.8-46.2C1148,215.4,1150.8,202.8,1154.8,190.5z"/>
				<path class="st3" d="M960.1,43.9c37,48.5,92.7,93.4,160.3,129.4c-0.3,0.6-0.5,1.2-0.7,1.8c-4.2,11.7-7.1,23.7-9.5,35.9
					c-29.8-15.4-57.9-32.4-83.4-50.9c-25.1-18.1-47.4-37.3-66.7-57.2V43.9z"/>
				<path class="st3" d="M2008.3,530.9c-13-4.9-26.2-10.6-39.7-14.1c24.6-21.6,49.9-36.8,71.6-47.2v43.5
					c-9.4,5.4-19.3,11.7-29.3,19.1C2010.1,531.7,2009.3,531.3,2008.3,530.9z"/>
				<path class="st3" d="M1576.8,616.9c14.7,32.1,29.4,61.9,45.3,87.2c9.6,15.3,20.2,27.5,31.8,36.5c-10.3,7.8-17.4,18.5-23.7,30.1
					c-14-11-27.8-26-40.6-46.4c-11-17.6-21.4-37-31.5-57.5C1564.2,650.2,1569.6,633.1,1576.8,616.9z"/>
				<path class="st3" d="M1679.3,755.9c0.5-0.1,1-0.3,1.4-0.5c10.4,3.6,21.5,5.1,33.1,4.6c72.5-3.4,149.8-81.7,185.7-153.5
					c13.3-26.5,29.3-48.8,46.4-67.4c4.7,0.1,9.3,0.6,13.7,1.8c9.8,2.7,19.4,6.2,29,9.8c-20.4,18.8-39.8,42.7-54.9,72.9
					c-41.8,83.6-130.1,170.4-218.1,174.6c-2.1,0.1-4.2,0.2-6.4,0.2c-17.3,0-37.5-3.4-58.1-14C1657.6,772.1,1665.6,760,1679.3,755.9z
					"/>
			</g>
		</g>
	</g>
</g>
<rect x="1187" y="1.4" class="st4" width="612.9" height="1078.6"/>
<g class="st0">
	<g>
		<g>
			<g>
				<polygon class="st1" points="562.9,1084.4 514.5,1014.8 462.3,1084.4 				"/>
				<path class="st1" d="M182.9,427.2l59.2-23.3l-76.7-96.5l-47.7,24.6l4.4,47.9C151.3,380.1,175.8,400.1,182.9,427.2z"/>
				<circle class="st1" cx="121.4" cy="443.5" r="45.8"/>
				<path class="st1" d="M608.7,884.1c22.3,0,42.4,9.7,56.2,25.1l50.7-46.1l-9.7-157.7l-138.5-148l-156,120.8L488.9,847l69.1,56.6
					C571.5,891.5,589.2,884.1,608.7,884.1z"/>
				<path class="st1" d="M608.7,1035.2c-27,0-50.7-14.2-64-35.5l-13.5,5.8l49.1,78.8h92.7l-38.2-53.7
					C626.6,1033.6,617.8,1035.2,608.7,1035.2z"/>
				<ellipse class="st1" cx="608.7" cy="959.7" rx="57.5" ry="57.5"/>
				<path class="st1" d="M763.6,499.5L824.1,397l-22.8-77l-52.5,54.1l-4.7,119.9C751,494.9,757.5,496.7,763.6,499.5z"/>
				<path class="st1" d="M723.6,494.7l3.8-98.6l-77.7,80.1l36,40C695.5,505.3,708.7,497.5,723.6,494.7z"/>
				<circle class="st1" cx="736.1" cy="560.6" r="50.9"/>
				<path class="st1" d="M615.8,1.4l-36.5,58.1c5.5,6.4,9.3,14.2,10.6,22.9l68.7-0.2l32.6-80.9H615.8z"/>
				<path class="st1" d="M544.7,43.6c6.4,0,12.5,1.3,18.1,3.7l28.9-46h-55.8l-70.8,67l10,14.3l24.4-0.1
					C502.8,60.6,521.7,43.6,544.7,43.6z"/>
				<path class="st1" d="M577,89.5c0,17.8-14.4,32.3-32.3,32.3s-32.3-14.4-32.3-32.3s14.4-32.3,32.3-32.3S577,71.7,577,89.5z"/>
			</g>
			<g>
				<polygon class="st2" points="492.5,450.4 549.6,405.3 614.3,484.3 564.1,535.5 				"/>
				<polygon class="st2" points="360,302.5 424.2,270.7 328.7,169.4 264.8,209.5 				"/>
				<polygon class="st2" points="248.6,218.4 191.4,286.6 268.9,386.5 340.8,316.1 				"/>
				<polygon class="st2" points="-119.5,1084.4 330.1,1084.4 -1,878.7 -119.5,939.4 				"/>
				<polygon class="st2" points="-119.5,909.7 -12.9,843.7 -80.3,767.9 -119.5,618.1 				"/>
				<polygon class="st2" points="-119.5,1.4 -119.5,325.7 96.2,314 32.8,1.4 				"/>
				<polygon class="st2" points="51.6,1.4 115.9,308.8 160.2,289.3 107,1.4 				"/>
				<polygon class="st2" points="138.5,1.4 181.5,245 238.7,176 312.8,140.2 276.1,1.4 				"/>
				<polygon class="st2" points="319.5,1.4 352.9,126.6 477.3,1.4 				"/>
				<polygon class="st2" points="713.4,1.4 680.7,82.2 739.7,82.1 742.9,1.4 				"/>
				<path class="st2" d="M252,420.8L185,446.7c-1.4,27.7-20.4,50.7-46.1,58l5.4,49.2l156.4-35.1L252,420.8z"/>
				<path class="st2" d="M959.9,902.9L730.7,729.6l6.8,149.9l-60.6,47.7c4.7,9.8,7.3,20.9,7.3,32.5c0,20.4-8.1,38.8-21.2,52.4
					l51.6,72.3h245.2V902.9z"/>
				<path class="st2" d="M959.9,709.2V284.9l-120.5,26.5l19.2,85.6l-72.1,119.5c10.3,11.8,16.6,27.2,16.6,44.2
					c0,15.5-5.3,29.8-14.1,41.1L959.9,709.2z"/>
				<path class="st2" d="M669,560.6c0-5,0.6-9.8,1.6-14.4l-42.8-49.6l-47.1,47.7l138.5,148.9l-1.4-68
					C689.6,617.1,669,591.3,669,560.6z"/>
				<path class="st2" d="M959.9,747.2L759.6,623.5c-6.4,2.4-13.2,3.8-20.3,4.2v75.7l220.7,161.4V747.2z"/>
				<path class="st2" d="M500.9,103.1l-36.5,0.1l-14.4-20.6l-83.9,79.4l73.6,81.6l74.9-119.5C508.3,118.5,503.5,111.3,500.9,103.1z"
					/>
				<g>
					<path class="st2" d="M-29.7,631.5c-22.3-44.7-55.2-74.6-85.4-94.3l64.4,215.3L22,838.3l93.6-49.8
						C54.3,754,0.5,691.9-29.7,631.5z"/>
					<path class="st2" d="M36.4,598.5c33.5,67,104.5,137.9,167,143.4l8.6-4.6l-66.4-59.5l-16-108.8L-2.9,538.3
						C11.5,555.6,24.9,575.5,36.4,598.5z"/>
				</g>
				<path class="st2" d="M271.2,803c-21.8,10-42.8,13.1-60.4,13.1c-2.4,0-4.8-0.1-7.3-0.2c-20.9-1-41.8-6.3-62.2-14.8l-99.7,55.4
					l378.4,227.8h8.5l74.3-81.2L305.6,832.1L271.2,803z"/>
				<path class="st2" d="M228.3,729.7l40.1-15.6c5-5.6,9.8-12,14.3-19.4c18.1-28.9,34.9-64.2,51.9-102.4l-26-55.3l-159.3,35.1
					l14.4,95L228.3,729.7z"/>
				<path class="st2" d="M-23.8,515.7l151.4,33.2l-5.8-41.8c-0.1,0-0.3,0-0.4,0c-35.2,0-63.7-28.5-63.7-63.7
					c0-29.3,19.8-54,46.8-61.4l-6.2-44.9l-217.8,13.2v100C-91.3,463.2-56.3,483.8-23.8,515.7z"/>
				<g>
					<path class="st2" d="M353,550.8c5.6-12.7,11.2-25.6,16.9-38.5l-29.1,13.8l11.8,25.6C352.7,551.4,352.9,551.1,353,550.8z"/>
					<path class="st2" d="M475.1,462.3c-19.3,37.5-36.9,78-54.4,118c-9.1,20.7-17.9,41.1-26.9,60.6l8.2,17.7l152.9-114.4l-77.9-82.8
						L475.1,462.3z"/>
				</g>
				<g>
					<path class="st2" d="M475.4,323.5l-37.7-40.8L368.6,319l63.9,67.8C445.6,364.4,459.9,343.1,475.4,323.5z"/>
					<path class="st2" d="M496.2,423.8l41.6-32.8l-11.7-12.6C515.6,392.4,505.7,407.7,496.2,423.8z"/>
				</g>
				<g>
					<path class="st2" d="M626.3,219.9c37.6-9.1,74.5-21.4,109.4-36.1l3.2-81.4l-66.4,0.2L625,220.3
						C625.4,220.2,625.9,220,626.3,219.9z"/>
					<path class="st2" d="M643.7,291.7c-21.3,5.2-40.7,14.5-58.5,27.1l-24,59.4l74.7,82.9l92.6-95.5l3.9-101.1
						C703.6,275.3,673.8,284.4,643.7,291.7z"/>
				</g>
				<g>
					<path class="st2" d="M599.8,228l50.6-125.3l-61.8,0.1c-5.7,18.8-23.2,32.5-43.9,32.5c-4.1,0-8.1-0.6-11.9-1.6L454,259.3
						l39.1,43.4C523.2,269.7,558.1,243.5,599.8,228z"/>
					<path class="st2" d="M542.8,357.8l3.2,3.6l5.2-12.8C548.3,351.5,545.6,354.6,542.8,357.8z"/>
				</g>
				<g>
					<path class="st2" d="M865.8,110.6c3.7-2.8,7.4-5.6,11-8.5l-117.4,0.3l-2.8,72.3C796.5,156.4,833.6,134.7,865.8,110.6z"/>
					<path class="st2" d="M753.4,256.4l-3.4,87.1l44.6-46l-15.4-52C770.7,249.3,762.1,252.9,753.4,256.4z"/>
					<path class="st2" d="M959.9,128.1c-14.2,13.6-29.8,26.8-46.6,39.5l46.6-8.2V128.1z"/>
				</g>
				<path class="st2" d="M959.9,1.4H763.4L760.2,82l140.7-0.3c24.3-22.2,44.1-45.5,59.1-69V1.4z"/>
				<path class="st2" d="M959.9,178.8L867,199.2c-18.8,11.7-38.7,22.7-59.2,32.9l11.2,51.2l141-32.8V178.8z"/>
				<path class="st2" d="M381.8,485.8c12.8-27.9,26.3-55.8,41.1-82.4l-69.6-73.9L279.9,403l51.8,106.2L381.8,485.8z"/>
				<path class="st2" d="M463.2,867.4l-81.8-176.8l-14.4,5.4c-7,13.2-14.1,25.8-21.6,37.8c-17.5,28-36.9,46.8-56.4,59.3l227.5,195.6
					l20.1-6.7c-2.2-7.1-3.4-14.7-3.4-22.5c0-10.6,2.2-20.7,6.2-29.9L463.2,867.4z"/>
			</g>
			<g>
				<path class="st3" d="M457.6,444c-5.3-7.8-11.9-21.9-20.7-28.7c-25.2,45.8-46.9,95.3-67.5,142.7c-2.2,5.1-4.5,10.2-6.7,15.3
					c9.6,13.9,16.2,29.2,21.9,44.9c6.6-14.7,13.1-29.7,19.8-44.9c18.3-42,36.9-84.4,57.3-123.8C460.3,447.7,458.9,445.8,457.6,444z"
					/>
				<path class="st3" d="M488.9,335.4c-14.1,17.9-27.2,37.3-39.4,57.7c10.9,7.8,18.8,20.9,25.7,31.3c12.7-22.5,26.2-43.5,40.9-62.5
					C507.4,352.7,497.5,344.7,488.9,335.4z"/>
				<path class="st3" d="M765.2,190.5c-41.7,19.3-87,35.2-134.7,46.8c-50,12.2-90.7,40.6-125,78.5c8.5,9.4,18.6,17.1,27.2,26.5
					c29.9-33.2,64.7-57.6,106.9-67.8c46.3-11.3,91.9-27,134.8-46.2C772,215.4,769.2,202.8,765.2,190.5z"/>
				<path class="st3" d="M959.9,43.9c-37,48.5-92.7,93.4-160.3,129.4c0.3,0.6,0.5,1.2,0.7,1.8c4.2,11.7,7.1,23.7,9.5,35.9
					c29.8-15.4,57.9-32.4,83.4-50.9c25.1-18.1,47.4-37.3,66.7-57.2V43.9z"/>
				<path class="st3" d="M-88.3,530.9c13-4.9,26.2-10.6,39.7-14.1c-24.6-21.6-49.9-36.8-71.6-47.2v43.5c9.4,5.4,19.3,11.7,29.3,19.1
					C-90.1,531.7-89.3,531.3-88.3,530.9z"/>
				<path class="st3" d="M343.2,616.9c-14.7,32.1-29.4,61.9-45.3,87.2c-9.6,15.3-20.2,27.5-31.8,36.5c10.3,7.8,17.4,18.5,23.7,30.1
					c14-11,27.8-26,40.6-46.4c11-17.6,21.4-37,31.5-57.5C355.8,650.2,350.4,633.1,343.2,616.9z"/>
				<path class="st3" d="M240.7,755.9c-0.5-0.1-1-0.3-1.4-0.5c-10.4,3.6-21.5,5.1-33.1,4.6c-72.5-3.4-149.8-81.7-185.7-153.5
					C7.2,579.9-8.9,557.6-26,539c-4.7,0.1-9.3,0.6-13.7,1.8c-9.8,2.7-19.4,6.2-29,9.8c20.4,18.8,39.8,42.7,54.9,72.9
					c41.8,83.6,130.1,170.4,218.1,174.6c2.1,0.1,4.2,0.2,6.4,0.2c17.3,0,37.5-3.4,58.1-14C262.4,772.1,254.4,760,240.7,755.9z"/>
			</g>
		</g>
	</g>
</g>
</svg>
