<?xml version="1.0" encoding="utf-8"?>
<!-- Generator: Adobe Illustrator 25.0.0, SVG Export Plug-In . SVG Version: 6.00 Build 0)  -->
<svg version="1.1" id="Laag_1" xmlns="http://www.w3.org/2000/svg" xmlns:xlink="http://www.w3.org/1999/xlink" x="0px" y="0px"
	 viewBox="0 0 300 300" style="enable-background:new 0 0 300 300;" xml:space="preserve">
<style type="text/css">
	.st0{opacity:0.3;}
	.st1{fill:#00C2C1;}
	.st2{opacity:0.7;fill:#00C2C1;}
</style>
<g>
	<g class="st0">
		<polygon class="st1" points="74.9,78.4 89.9,78.4 89.9,47.3 90.3,47.3 90.3,46.4 89.4,46.4 89.4,45.3 82,45.3 82,43.6 79.2,43.6 
			78.7,42.5 78,42.5 78,40.5 77.9,40.5 77.7,40.5 77.7,42.5 76.4,42.5 76.4,43.6 76.4,44.9 76.4,45.3 75.4,45.3 75.4,46.4 
			74.4,46.4 74.4,47.3 74.9,47.3 		"/>
		<path class="st1" d="M78.2,40.2c0-0.2-0.1-0.3-0.3-0.3c-0.2,0-0.3,0.1-0.3,0.3c0,0.2,0.1,0.3,0.3,0.3C78,40.5,78.2,40.3,78.2,40.2
			z"/>
		<polyline class="st1" points="214.4,80.2 214.4,38.5 195.9,34.6 197.9,80.2 143.6,80.2 143.6,54.4 142.6,54.4 142.6,39 140,39 
			140,34.9 139.1,34.9 139.1,28.8 134,28.8 134,24.3 133.6,24.3 133.6,28.8 132.6,28.8 132.6,23.2 132.1,23.2 132.1,28.8 
			128.9,28.8 128.9,39 127.3,39 127.3,54.4 125.8,54.4 125.8,80.2 111.4,80.2 111.4,45.9 111.6,45.9 111.6,45.5 109.9,45.5 
			109.9,43.1 110.1,43.1 110.1,42.7 108.5,42.7 108.5,41.3 108.6,41.3 108.6,41 107.9,41 107.9,39.8 107.2,39.8 107.1,39.8 
			107.1,35.1 107,35.1 107,35.1 106.9,35.1 106.9,39.8 106.5,39.8 106.5,37.2 106.5,37.2 106.4,37.2 106.3,37.2 106.3,39.8 
			105.5,39.8 105.5,41 104.7,41 104.7,41.3 105,41.3 105,42.7 103.3,42.7 103.3,43.1 103.6,43.1 103.6,45.5 101.8,45.5 101.8,45.9 
			102,45.9 102,80.2 53.8,80.2 53.8,84.8 250.5,84.8 		"/>
	</g>
	<path class="st2" d="M247,84.4v-4.2h-5.9l-2.2-16.6h-0.3v-2h-1.2v2H237v-0.7h-0.8v0.7h-1.7v-1.7H234v-1.2h-3.4v1.2h-0.5v1.7h-0.5
		v10h-3V48.3h-1v-5.5h-0.3v5.5h-0.7v-7.7h-0.3v7.7h-0.6v-4.2h-0.3v4.2h-5.8v17.9h-6.4v11.6h-6l-4.8-8.8c0.8-0.5,1.6-1,2.3-1.7l1,1
		c-0.2,0.2-0.3,0.5-0.3,0.8c0,0.6,0.4,1,1,1c0.6,0,1-0.4,1-1c0-0.6-0.4-1-1-1c-0.2,0-0.4,0.1-0.6,0.2l-1-1.1
		c0.1-0.1,0.2-0.2,0.2-0.2c1-1,1.9-2.2,2.5-3.5l1.1,0.5c0,0.1,0,0.2,0,0.2c0,0.6,0.4,1,1,1c0.6,0,1-0.4,1-1c0-0.6-0.4-1-1-1
		c-0.4,0-0.8,0.3-0.9,0.6l-1.1-0.5c0.7-1.5,1-3,1.1-4.7l1.2,0c0,0.5,0.5,1,1,1c0.6,0,1-0.4,1-1c0-0.6-0.4-1-1-1c-0.5,0-1,0.4-1,0.9
		l-1.2,0c0-0.1,0-0.2,0-0.3c0-1.5-0.3-2.9-0.7-4.2l1-0.4c0.2,0.4,0.5,0.6,0.9,0.6c0.6,0,1-0.4,1-1c0-0.6-0.4-1-1-1c-0.6,0-1,0.4-1,1
		c0,0.1,0,0.2,0,0.3l-1,0.4c-0.6-1.5-1.4-2.9-2.5-4.1l0.8-0.7c0.2,0.2,0.4,0.3,0.7,0.3c0.6,0,1-0.4,1-1c0-0.6-0.4-1-1-1
		c-0.6,0-1,0.4-1,1c0,0.2,0.1,0.5,0.2,0.6l-0.8,0.7c-0.1-0.1-0.2-0.2-0.2-0.2c-1.2-1.2-2.5-2.1-4-2.7l0.4-1c0.1,0,0.2,0,0.3,0
		c0.6,0,1-0.4,1-1c0-0.6-0.4-1-1-1c-0.6,0-1,0.4-1,1c0,0.4,0.2,0.8,0.6,0.9l-0.4,1c-1.3-0.5-2.7-0.8-4.2-0.9l0-1.4c0,0,0,0,0,0
		c0.6,0,1-0.4,1-1c0-0.6-0.4-1-1-1c-0.6,0-1,0.4-1,1c0,0.5,0.4,0.9,0.9,1l0,1.4c-0.1,0-0.2,0-0.3,0c-1.4,0-2.8,0.2-4.1,0.7l-0.4-1.1
		c0.4-0.1,0.6-0.5,0.6-0.9c0-0.6-0.4-1-1-1c-0.6,0-1,0.4-1,1c0,0.6,0.4,1,1,1c0.1,0,0.2,0,0.3,0l0.4,1.1c-1.6,0.6-3,1.4-4.2,2.6
		l-0.7-0.8c0.2-0.2,0.3-0.4,0.3-0.7c0-0.6-0.4-1-1-1c-0.6,0-1,0.4-1,1s0.4,1,1,1c0.3,0,0.5-0.1,0.7-0.2l0.7,0.8
		c-0.1,0.1-0.2,0.2-0.2,0.2c-1,1-1.9,2.2-2.5,3.5l-0.9-0.4c0-0.1,0.1-0.2,0.1-0.3c0-0.6-0.4-1-1-1c-0.6,0-1,0.4-1,1c0,0.6,0.4,1,1,1
		c0.4,0,0.7-0.2,0.9-0.6l0.9,0.4c-0.7,1.5-1,3-1.1,4.7l-1.2,0c0-0.5-0.5-1-1-1c-0.6,0-1,0.4-1,1c0,0.6,0.4,1,1,1c0.5,0,1-0.4,1-0.9
		l1.2,0c0,0.1,0,0.2,0,0.3c0,1.5,0.3,2.9,0.7,4.2l-1,0.4c-0.2-0.4-0.5-0.6-0.9-0.6c-0.6,0-1,0.4-1,1c0,0.6,0.4,1,1,1
		c0.6,0,1-0.4,1-1c0-0.1,0-0.2,0-0.3l1-0.4c0.6,1.5,1.4,2.9,2.5,4.1l-0.8,0.7c-0.2-0.2-0.4-0.3-0.7-0.3c-0.6,0-1,0.4-1,1
		c0,0.6,0.4,1,1,1c0.6,0,1-0.4,1-1c0-0.2-0.1-0.5-0.2-0.6l0.8-0.7c0.1,0.1,0.2,0.2,0.2,0.2c0.8,0.8,1.6,1.4,2.6,2l-4.8,8.8h-3.9v-6
		h-1.6V60.6h0.6v-0.2H165v0.2h0.6v5.7h-1.3l-1.3,6.5V51.4h-0.6v-7.7h-2.8v-2.9h-1.5v-2.5h-0.5v-4.2h-0.1v4.2H157v2.5h-1.5v2.9h-2.8
		v7.7h-0.6v14h-4.3v12.4h-14.3V53.9h1.1v-0.4h-1.1v-0.7h-1.5v-1.1h-11.9v1.1h-1.5v0.7h-1.1v0.4h1.1v14.9h-1.9V66h-12v3.4h-2.6v6.4
		H98V55h-1.4v-1.4h-1.1v-3.7h-0.2v3.7h-0.5v-4.7h-0.2v4.7h-0.7V55h-0.3v20.8h-8.8V63.6h0.4v-0.8h-2.7v-2.2h-1.3v2.2h-1.2v-2.2h-1.2
		v2.2h-2.3v-2.2h-7v2.2h-1.6v0.8h0.9v4.6h-2.6v10.4h-3.6v-2.8h-4v6h-4.8v2.6 M46.8,91.8h206.5 M200.3,68.7l-1.7-3
		c0.5-0.3,1-0.7,1.5-1.1l2.4,2.5C201.8,67.8,201,68.3,200.3,68.7z M194.1,59c0,0,0.1,0,0.1,0l-0.3,7.7c-1,0-1.9-0.2-2.8-0.6
		L194.1,59z M191,66.1c-0.3-0.1-0.6-0.3-0.8-0.4l3.7-6.8c0,0,0,0,0.1,0L191,66.1z M194.3,59c0,0,0.1,0,0.1,0l2.6,7.3
		c-0.9,0.3-1.8,0.5-2.7,0.5c-0.1,0-0.1,0-0.2,0L194.3,59z M194.6,58.9c0,0,0.1,0,0.1-0.1l3.7,6.8c-0.4,0.2-0.8,0.4-1.2,0.6
		L194.6,58.9z M195.2,59.4l4.8,5.1c-0.4,0.4-0.9,0.8-1.4,1.1L195.2,59.4z M195,59l-0.1-0.3c0,0,0,0,0-0.1l7,3.2
		c-0.4,0.9-1.1,1.8-1.8,2.5L195,59z M194.9,58.6c0,0,0-0.1,0-0.2l7.7,0.3c0,1.1-0.3,2.2-0.7,3.1L194.9,58.6z M195,58.3
		c0-0.1,0-0.1,0-0.1l7.2-2.7c0.3,0.9,0.5,1.8,0.5,2.8c0,0.1,0,0.1,0,0.2L195,58.3z M194.9,58c0,0-0.1-0.1-0.1-0.1l5.6-5.3
		c0.7,0.8,1.3,1.7,1.7,2.7L194.9,58z M194.7,57.8c0,0-0.1-0.1-0.1-0.1l2.9-7.1c1.1,0.5,2,1.1,2.8,2L194.7,57.8z M194.5,57.7
		c0,0-0.1,0-0.1,0l0.3-7.7c1,0,1.9,0.2,2.8,0.6L194.5,57.7z M194.2,57.7c0,0-0.1,0-0.1,0l-2.6-7.3c0.9-0.3,1.8-0.5,2.7-0.5
		c0.1,0,0.1,0,0.2,0L194.2,57.7z M194,57.7c-0.1,0-0.1,0.1-0.1,0.1l-5.3-5.6c0.8-0.8,1.8-1.4,2.8-1.7L194,57.7z M193.8,57.9
		c0,0-0.1,0.1-0.1,0.1l-7-3.2c0.4-0.9,1.1-1.8,1.8-2.5L193.8,57.9z M193.6,58.1c0,0,0,0.1,0,0.2l-7.7-0.3c0-1.1,0.3-2.2,0.7-3.1
		L193.6,58.1z M193.6,58.4c0,0.1,0,0.1,0,0.1l-7.2,2.7c-0.3-0.9-0.5-1.8-0.5-2.8c0-0.1,0-0.1,0-0.2L193.6,58.4z M193.7,58.6
		c0,0,0,0.1,0.1,0.1l0,0.1l-5.6,5.2c-0.7-0.8-1.3-1.7-1.7-2.7L193.7,58.6z M193.5,59.1l-3.5,6.4c-0.7-0.4-1.3-0.9-1.8-1.5
		L193.5,59.1z M190.1,65.8c0.3,0.2,0.6,0.3,0.8,0.4l-1.3,3.2c-0.4-0.2-0.8-0.4-1.2-0.6L190.1,65.8z M191.1,66.3
		c0.9,0.4,1.9,0.6,2.9,0.6l-0.1,3.5c-1.4-0.1-2.8-0.3-4.1-0.9L191.1,66.3z M194.1,66.9c0.1,0,0.1,0,0.2,0c1,0,1.9-0.2,2.8-0.5
		l1.2,3.3c-1.3,0.4-2.6,0.7-3.9,0.7c-0.1,0-0.2,0-0.3,0L194.1,66.9z M197.2,66.4c0.4-0.2,0.8-0.3,1.2-0.6l1.7,3
		c-0.6,0.3-1.1,0.6-1.7,0.8L197.2,66.4z M202.8,66.8c-0.1,0.1-0.2,0.2-0.2,0.2l-2.4-2.5c0.8-0.7,1.4-1.6,1.9-2.6l3.1,1.5
		C204.6,64.7,203.8,65.8,202.8,66.8z M205.2,63.3l-3.1-1.5c0.4-1,0.7-2.1,0.8-3.2l3.5,0.1C206.2,60.4,205.9,61.9,205.2,63.3z
		 M206.3,58.3c0,0.1,0,0.2,0,0.3l-3.5-0.1c0-0.1,0-0.1,0-0.2c0-1-0.2-2-0.5-2.9l3.2-1.2C206,55.5,206.3,56.9,206.3,58.3z
		 M203.1,50.2c1.1,1.2,1.9,2.5,2.5,4l-3.2,1.2c-0.4-1-1-2-1.7-2.8L203.1,50.2z M202.8,49.8c0.1,0.1,0.2,0.2,0.2,0.2l-2.5,2.4
		c-0.8-0.9-1.8-1.5-2.9-2l1.3-3.2C200.3,47.8,201.6,48.7,202.8,49.8z M194.7,46.3c1.4,0.1,2.8,0.3,4.1,0.9l-1.3,3.2
		c-0.9-0.4-1.9-0.6-2.9-0.6L194.7,46.3z M194.3,46.3c0.1,0,0.2,0,0.3,0l-0.1,3.5c-0.1,0-0.1,0-0.2,0c-1,0-1.9,0.2-2.8,0.5l-1.2-3.3
		C191.6,46.6,192.9,46.3,194.3,46.3z M190.2,47l1.2,3.3c-1.1,0.4-2.1,1-2.9,1.8l-2.4-2.5C187.3,48.4,188.7,47.6,190.2,47z
		 M185.8,49.8c0.1-0.1,0.2-0.2,0.2-0.2l2.4,2.5c-0.8,0.7-1.4,1.6-1.9,2.6l-3.1-1.5C184,52,184.8,50.8,185.8,49.8z M183.4,53.3
		l3.1,1.5c-0.4,1-0.7,2.1-0.8,3.2l-3.5-0.1C182.3,56.3,182.7,54.8,183.4,53.3z M182.3,58.3c0-0.1,0-0.2,0-0.3l3.5,0.1
		c0,0.1,0,0.1,0,0.2c0,1,0.2,2,0.5,2.9l-3.2,1.2C182.5,61.1,182.3,59.8,182.3,58.3z M185.5,66.5c-1.1-1.2-1.9-2.5-2.5-4l3.2-1.2
		c0.4,1,1,2,1.7,2.8L185.5,66.5z M185.8,66.8c-0.1-0.1-0.2-0.2-0.2-0.2l2.5-2.4c0.5,0.6,1.2,1.1,1.9,1.5l-1.7,3
		C187.4,68.2,186.5,67.6,185.8,66.8z M188.3,69.1c0.4,0.2,0.8,0.4,1.2,0.6l-0.4,1c-0.1,0-0.2,0-0.3,0c-0.6,0-1,0.4-1,1
		c0,0.6,0.4,1,1,1c0.6,0,1-0.4,1-1c0-0.4-0.2-0.8-0.6-0.9l0.4-1c1.3,0.5,2.7,0.8,4.2,0.9l0,1c-0.5,0-1,0.5-1,1c0,0.6,0.4,1,1,1
		c0.6,0,1-0.4,1-1c0-0.5-0.4-1-0.9-1l0-1.1c0.1,0,0.2,0,0.3,0c1.4,0,2.8-0.2,4.1-0.7l0.4,1c-0.3,0.2-0.6,0.5-0.6,0.9
		c0,0.6,0.4,1,1,1c0.6,0,1-0.4,1-1c0-0.6-0.4-1-1-1c-0.1,0-0.2,0-0.3,0.1l-0.4-1c0.6-0.2,1.2-0.5,1.8-0.8l4.7,8.7h-21.3L188.3,69.1z
		"/>
	<g>
		<path class="st1" d="M224.5,58.3v0.4h0.9v1.1h0.8v0.9h-0.4v18.1h3.9v7.4h6.9V69.7h-0.4V69h2.3c-4.3-4.5-9-8.7-14-12.6V57V58.3z"/>
		<path class="st1" d="M49.3,84.3c-0.7,1-1.4,2-2.1,3.1h2.1V84.3z"/>
		<path class="st1" d="M223.7,55.9c-0.1-0.1-0.2-0.2-0.3-0.2v0.2H223.7z"/>
		<path class="st1" d="M253.1,87.6c-1.6-2.5-3.4-5-5.2-7.4l1.1,7.4H253.1z"/>
		<path class="st1" d="M255.7,91.8h-11.1h-1.9h-1h-5.1h-6.9h-1.9h-2.1h-1.7h-9.6h-1.2h-2H208h-5.8h-0.1H194h-7.7h-3.1h-2h-4.3h-4.7
			h-2.6H169h-1.3H159h-1.7h-0.6H156h-0.3h-2h-1.3H150h-0.2h-1.1h-2.4h-1.3h-2.4h-0.6h-0.6H135h-1.9h-6.9h-1.6h-4.4h-2.6h-11.3h-2.8
			h-2.4h-4.8h-2.9h-0.8h-5.4h-1.4h-3.1h-2.5h-8.2h-3.8h-1.1h-2h-6H55h-1.1H51h-1.7h-4.7c-10.7,18.2-16.8,39.3-16.8,61.9
			c0,67.6,54.8,122.4,122.4,122.4c67.6,0,122.4-54.8,122.4-122.4C272.5,131.1,266.4,109.9,255.7,91.8z"/>
		<path class="st1" d="M246.2,77.8c-0.5-0.6-1-1.3-1.5-1.9v1.9H246.2z"/>
		<path class="st1" d="M51,91.8h2.8H55h4.3h6h2h1.1h3.8h8.2h2.5h3.1h1.4h5.4h0.8h2.9h4.8h2.4h2.8h11.3h2.6h4.4h1.6h6.9h1.9h6.5h0.6
			h0.6h2.4h1.3h2.4h1.1h0.2h2.4h1.3h2h0.3h0.6h0.6h1.7h8.8h1.3h0.6h2.6h4.7h4.3h2h3.1h7.7h8.2h0.1h5.8h3.2h2h1.2h9.6h1.7h2.1h1.9
			h6.9h5.1h1h1.9h11.1c-0.8-1.4-1.7-2.8-2.6-4.2h-4.1l-1.1-7.4c-0.6-0.8-1.2-1.6-1.8-2.3h-1.5v-1.9c-2-2.4-4-4.7-6.1-6.9h-2.3v0.7
			h0.4v16.4h-6.9v-7.4h-3.9V60.7h0.4v-0.9h-0.8v-1.1h-0.9v-0.4V57v-0.5c-0.3-0.2-0.5-0.4-0.8-0.6h-0.3v-0.2
			c-0.1-0.1-0.2-0.1-0.3-0.2v0.4h-0.6l-0.4,1.1h-2.4v1.7h-6.2v1.1h-0.8v0.9h0.4v11.8H208V84l-5.8-2.6V70.3h0.9v-0.8h-1.6v-2.2h-7
			v2.2h-2.3v-2.2H191v2.2h-1.2v-2.2h-1.3v2.2h-2.7v0.8h0.4v15.5h-2.6v-0.2h-0.5v-4.4h0.5v-0.4h-0.5v-4.4h0.5v-0.4h-0.5v-4.4h0.5
			v-0.4h-0.5v-4.4h0.5v-0.4h-0.5v-4.4h0.5v-0.4h-0.5v-4.6h0.8v-0.4h0.4v-1h-7.7v-1.1h0.3v-0.3h-4.2v0.3h0.3v1.1H171v1h0.4v0.4h0.8
			v4.6h-0.5v0.4h0.5v4.4h-0.5v0.4h0.5v4.4h-0.5v0.4h0.5v4.4h-0.5v0.4h0.5v4.4h-0.5v0.4h0.5v4.4h-0.5V86h0.5v3.6h-2.6v-14H159v10.2
			h-1.7V54.1H156v0.8l-2.4,0.6V55h-1.3v0.8l-2.4,0.6v-0.6h-1.3v0.9l-2.4,0.6v-0.5h-1.3v0.8l-2.4,0.6v-0.4h-1.3v31.1h-1.8V72.3H133
			v10.2h-6.8v-8.7h-0.8v-2.9h0.5v-0.3h-2.2v-0.9h-0.2v0.9h-0.7V66h-0.2v4.6h-0.9v0.3h0.5v2.9h-4.5v6.6h-4.4l-2.3,8.5h-4.6V61.3h-6.1
			v-1h0.3v-0.3H96v0.3h0.4v1v1.6v18.9h-2.9v-7.1h1V74h-7.2v-4.3h-1.4v-0.9h-3.1v0.9h-2.5v15.4h-8.2V73.6h-6.9v9h-6v5.8H55v-7.3h-3.5
			c-0.8,1-1.5,2.1-2.2,3.1v3.1h-2.1c-0.9,1.4-1.8,2.9-2.7,4.4h4.7H51z"/>
		<path class="st1" d="M51,91.8h2.8H55h4.3h6h2h1.1h3.8h8.2h2.5h3.1h1.4h5.4h0.8h2.9h4.8h2.4h2.8h11.3h2.6h4.4h1.6h6.9h1.9h6.5h0.6
			h0.6h2.4h1.3h2.4h1.1h0.2h2.4h1.3h2h0.3h0.6h0.6h1.7h8.8h1.3h0.6h2.6h4.7h4.3h2h3.1h7.7h8.2h0.1h5.8h3.2h2h1.2h9.6h1.7h2.1h1.9
			h6.9h5.1h1h1.9h11.1c-0.8-1.4-1.7-2.8-2.6-4.2h-4.1l-1.1-7.4c-0.6-0.8-1.2-1.6-1.8-2.3h-1.5v-1.9c-2-2.4-4-4.7-6.1-6.9h-2.3v0.7
			h0.4v16.4h-6.9v-7.4h-3.9V60.7h0.4v-0.9h-0.8v-1.1h-0.9v-0.4V57v-0.5c-0.3-0.2-0.5-0.4-0.8-0.6h-0.3v-0.2
			c-0.1-0.1-0.2-0.1-0.3-0.2v0.4h-0.6l-0.4,1.1h-2.4v1.7h-6.2v1.1h-0.8v0.9h0.4v11.8H208V84l-5.8-2.6V70.3h0.9v-0.8h-1.6v-2.2h-7
			v2.2h-2.3v-2.2H191v2.2h-1.2v-2.2h-1.3v2.2h-2.7v0.8h0.4v15.5h-2.6v-0.2h-0.5v-4.4h0.5v-0.4h-0.5v-4.4h0.5v-0.4h-0.5v-4.4h0.5
			v-0.4h-0.5v-4.4h0.5v-0.4h-0.5v-4.4h0.5v-0.4h-0.5v-4.6h0.8v-0.4h0.4v-1h-7.7v-1.1h0.3v-0.3h-4.2v0.3h0.3v1.1H171v1h0.4v0.4h0.8
			v4.6h-0.5v0.4h0.5v4.4h-0.5v0.4h0.5v4.4h-0.5v0.4h0.5v4.4h-0.5v0.4h0.5v4.4h-0.5v0.4h0.5v4.4h-0.5V86h0.5v3.6h-2.6v-14H159v10.2
			h-1.7V54.1H156v0.8l-2.4,0.6V55h-1.3v0.8l-2.4,0.6v-0.6h-1.3v0.9l-2.4,0.6v-0.5h-1.3v0.8l-2.4,0.6v-0.4h-1.3v31.1h-1.8V72.3H133
			v10.2h-6.8v-8.7h-0.8v-2.9h0.5v-0.3h-2.2v-0.9h-0.2v0.9h-0.7V66h-0.2v4.6h-0.9v0.3h0.5v2.9h-4.5v6.6h-4.4l-2.3,8.5h-4.6V61.3h-6.1
			v-1h0.3v-0.3H96v0.3h0.4v1v1.6v18.9h-2.9v-7.1h1V74h-7.2v-4.3h-1.4v-0.9h-3.1v0.9h-2.5v15.4h-8.2V73.6h-6.9v9h-6v5.8H55v-7.3h-3.5
			c-0.8,1-1.5,2.1-2.2,3.1v3.1h-2.1c-0.9,1.4-1.8,2.9-2.7,4.4h4.7H51z"/>
	</g>
</g>
</svg>
