<?xml version="1.0" encoding="utf-8"?>
<!-- Generator: Adobe Illustrator 25.0.0, SVG Export Plug-In . SVG Version: 6.00 Build 0)  -->
<svg version="1.1" id="Laag_1" xmlns="http://www.w3.org/2000/svg" xmlns:xlink="http://www.w3.org/1999/xlink" x="0px" y="0px"
	 viewBox="0 0 160 160" style="enable-background:new 0 0 160 160;" xml:space="preserve">
<style type="text/css">
	.st0{fill:#0066A7;}
	.st1{fill:#FFFFFF;}
	.st2{fill:#0066A6;}
	.st3{fill:#00BFBF;}
</style>
<g>
	<path class="st0" d="M79.7,10.7C79.7,10.7,79.7,10.7,79.7,10.7c-0.1,0-0.2,0-0.2,0C59,10.7,42.3,27.4,42.3,48
		c0,4.5,3.8,14.3,7.3,23.9c4.9,13.4,27.1,65.1,30,68.6c0,0,0.1,0.2,0.1,0.1c0,0,0.1-0.1,0.1-0.1c2.9-3.5,23.2-53.1,29.9-68.7
		c4.1-9.4,7.2-19.5,7.2-23.9C117,27.3,100.3,10.7,79.7,10.7z"/>
	<path class="st1" d="M79.7,75.6c-14.9,0-27-12-27-26.9c0-14.9,12-27,26.9-27c14.9,0,27,12,27,26.9C106.6,63.5,94.6,75.6,79.7,75.6z
		"/>
</g>
<path class="st2" d="M260.2,63.4V30.9h10.5c4,0,6.6,0.2,7.8,0.5c1.9,0.5,3.4,1.5,4.7,3.2c1.3,1.6,1.9,3.7,1.9,6.3c0,2-0.4,3.7-1.1,5
	c-0.7,1.4-1.6,2.4-2.8,3.2c-1.1,0.8-2.2,1.3-3.4,1.5c-1.6,0.3-3.8,0.5-6.8,0.5h-4.3v12.2H260.2z M266.7,36.4v9.2h3.6
	c2.6,0,4.3-0.2,5.2-0.5c0.9-0.3,1.6-0.9,2-1.6c0.5-0.7,0.7-1.6,0.7-2.5c0-1.2-0.3-2.2-1-2.9c-0.7-0.8-1.6-1.2-2.6-1.4
	c-0.8-0.1-2.4-0.2-4.7-0.2H266.7z"/>
<g>
	<path class="st2" d="M60.4,59.2c-0.5,0-0.7-0.2-0.7-0.6V36.4c0-0.4,0.2-0.6,0.7-0.6h4.6c3.6,0,6.2,0.6,7.8,2.2
		c1.1,1.1,1.7,2.8,1.7,5c0,4.5-2.7,7.7-8.3,7.7c-0.8,0-1.6,0-2.4-0.1v7.9c0,0.4-0.2,0.6-0.7,0.6H60.4z M63.9,39.1v8.3
		c0.7,0.1,1.4,0.1,2.1,0.1c3,0,4.4-1.7,4.4-4.4c0-1.5-0.5-2.4-1.2-3c-0.9-0.7-2.2-0.9-3.7-0.9H63.9z"/>
	<path class="st3" d="M80.8,48.5h3.4c0.2,0,0.3,0.1,0.3,0.3V50c0,0.2-0.1,0.3-0.3,0.3h-3.4v3.4c0,0.2-0.1,0.3-0.3,0.3h-1.1
		c-0.2,0-0.3-0.1-0.3-0.3v-3.4h-3.4c-0.2,0-0.3-0.1-0.3-0.3v-1.1c0-0.2,0.1-0.3,0.3-0.3H79v-3.4c0-0.2,0.1-0.3,0.3-0.3h1.1
		c0.2,0,0.3,0.1,0.3,0.3V48.5z"/>
	<path class="st2" d="M93.8,50.8c-0.4-0.7-0.7-0.8-1.4-0.8h-1.6v8.6c0,0.4-0.2,0.6-0.7,0.6h-2.8c-0.5,0-0.7-0.2-0.7-0.6V36.4
		c0-0.4,0.2-0.6,0.7-0.6h5.3c3.4,0,5.9,0.7,7.3,2.2c1,1.1,1.6,2.6,1.6,4.6c0,3.1-1.5,5.4-4.3,6.7l5.4,9.1c0.3,0.5,0.2,0.8-0.4,0.8
		h-3c-0.6,0-0.7,0-1.1-0.6L93.8,50.8z M90.8,39.1v7.6h2.1c3,0,4.5-1.5,4.5-4.1c0-1.2-0.3-2-0.9-2.5c-0.8-0.8-2.2-1-3.8-1H90.8z"/>
</g>
</svg>
